<svg preserveAspectRatio="xMidYMid meet" data-bbox="0 0 389.17 66.12" viewBox="0 0 389.17 66.12" xmlns="http://www.w3.org/2000/svg" data-type="color" role="presentation" aria-hidden="true">
    <g>
        <path fill="#3c3c3b" d="M389.17 60.92a3.99 3.99 0 1 1-7.98 0 3.99 3.99 0 0 1 7.98 0z" data-color="1"></path>
        <path fill="#1693c9" d="M47.26 4.02v6.67a2.94 2.94 0 0 1-2.94 2.94H2.94A2.94 2.94 0 0 1 0 10.69V4.02a2.94 2.94 0 0 1 2.94-2.94h41.38a2.94 2.94 0 0 1 2.94 2.94z" data-color="2"></path>
        <path d="M59.77 4.04v6.68c0 1.62 1.31 2.93 2.93 2.93h6.99c1.62 0 2.94-1.32 2.94-2.94V4.04c0-1.62-1.32-2.94-2.94-2.94H62.7c-1.62 0-2.93 1.31-2.93 2.93Z" fill="#e42524" data-color="3"></path>
        <path d="M30.14 36.55v-6.68c0-1.62-1.31-2.93-2.93-2.93H2.94C1.32 26.94 0 28.26 0 29.88v6.67c0 1.62 1.32 2.94 2.94 2.94h24.27c1.62 0 2.93-1.31 2.93-2.93Z" fill="#1693c9" data-color="2"></path>
        <path d="M42.51 29.87v6.68c0 1.62 1.31 2.93 2.93 2.93h24.11c1.62 0 2.94-1.32 2.94-2.94v-6.67c0-1.62-1.32-2.94-2.94-2.94H45.44c-1.62 0-2.93 1.31-2.93 2.93Z" fill="#ffe025" data-color="4"></path>
        <path d="M13.19 62.41v-6.68c0-1.62-1.31-2.93-2.93-2.93H3.27c-1.62 0-2.94 1.32-2.94 2.94v6.67c0 1.62 1.32 2.94 2.94 2.94h6.99c1.62 0 2.93-1.31 2.93-2.93Z" fill="#1693c9" data-color="2"></path>
        <path fill="#81ba27" d="M73.02 55.73v6.69a2.93 2.93 0 0 1-2.93 2.93h-41.4a2.93 2.93 0 0 1-2.93-2.93v-6.69a2.93 2.93 0 0 1 2.93-2.93h41.4a2.93 2.93 0 0 1 2.93 2.93z" data-color="5"></path>
        <path d="M125.55 66.12c-18.1 0-31.29-12.61-31.29-32.8S107.22.51 125.55.51s30.12 13.31 30.12 29.54c0 2.57 0 4.2-.23 6.42h-52.88c.7 14.94 11.09 22.76 23 22.76 10.86 0 18.21-5.72 20.55-14.24h8.64c-2.92 12.02-13.19 21.13-29.18 21.13Zm-23-36.31h44.83c.35-14.83-10.39-22.3-22.18-22.3s-21.71 7.47-22.65 22.3Z" fill="#3c3c3b" data-color="1"></path>
        <path d="M272.04 66.12c-18.1 0-31.29-12.61-31.29-32.8S253.71.51 272.04.51s30.12 13.31 30.12 29.54c0 2.57 0 4.2-.23 6.42h-52.88c.7 14.94 11.09 22.76 23 22.76 10.86 0 18.21-5.72 20.55-14.24h8.64c-2.92 12.02-13.19 21.13-29.19 21.13Zm-23-36.31h44.83c.35-14.83-10.39-22.3-22.18-22.3s-21.71 7.47-22.65 22.3Z" fill="#3c3c3b" data-color="1"></path>
        <path d="M344.65 66.12c-18.1 0-31.29-12.61-31.29-32.8S326.32.51 344.65.51s30.12 13.31 30.12 29.54c0 2.57 0 4.2-.23 6.42h-52.88c.7 14.94 11.09 22.76 23 22.76 10.86 0 18.21-5.72 20.55-14.24h8.64c-2.92 12.02-13.19 21.13-29.19 21.13Zm-23-36.31h44.83c.35-14.83-10.39-22.3-22.18-22.3s-21.71 7.47-22.65 22.3Z" fill="#3c3c3b" data-color="1"></path>
        <path d="M218.23 6.49C213.62 2.33 209.22 0 198.5 0c-10.15 0-15.11 2.33-19.73 6.49-5.04 4.54-8.17 11.59-8.17 21.34v37.36h8.17V30.4c0-15.32 8.08-22.78 19.73-22.98 11.65.2 19.73 7.66 19.73 22.98v34.79h8.17V27.83c0-9.75-3.13-16.8-8.17-21.34Z" fill="#3c3c3b" data-color="1"></path>
    </g>
</svg>